#!OML:ASF F:\VICON\USERDATA\INSTALL\rory3\rory3.ASF
:FULLY-SPECIFIED
:DEGREES
95
root 0.612609 17.9481 14.1713 2.72373 6.18648 4.8106
lowerback 16.7899 -3.91179 -6.1498
upperback 0.824547 -6.49038 -1.85575
thorax -8.04286 -2.93083 2.95338
lowerneck -5.63753 1.06471 -1.60979
upperneck -7.40912 1.5373 1.1611
head -1.37344 0.792674 0.631211
rclavicle -3.04141e-014 -4.92986e-014
rhumerus -60.6652 4.50224 -82.8854
rradius 79.9667
rwrist -3.0565
rhand -44.1964 34.4061
rfingers 7.12502
rthumb -17.0102 5.13092
lclavicle -3.04141e-014 -4.92986e-014
lhumerus -11.4971 -14.7288 85.5058
lradius 116.611
lwrist 29.9321
lhand -38.7184 6.92932
lfingers 7.12502
lthumb -11.7321 36.5808
rfemur -42.7345 -7.87428 17.3442
rtibia 98.3411
rfoot 10.8343 -6.98123
rtoes 11.5385
lfemur 11.3203 -1.10451 -26.7308
ltibia 23.9542
lfoot 1.16908 -6.79785
ltoes -27.9499
96
root 0.622818 18.0392 14.7491 2.74019 5.7571 4.88814
lowerback 16.3748 -3.99612 -6.18952
upperback 0.648396 -6.57503 -1.68371
thorax -7.97104 -2.9695 3.14825
lowerneck -5.65143 1.24869 -1.469
upperneck -6.99462 1.75009 0.616804
head -1.23569 0.900096 0.440385
rclavicle -2.48481e-014 -1.98785e-015
rhumerus -61.5451 4.82265 -82.8163
rradius 80.237
rwrist -2.7662
rhand -44.5762 33.949
rfingers 7.12502
rthumb -17.3758 4.70565
lclavicle -2.48481e-014 -1.98785e-015
lhumerus -11.8799 -15.0659 85.7585
lradius 117.279
lwrist 30.4366
lhand -38.7799 6.37209
lfingers 7.12502
lthumb -11.7915 36.0202
rfemur -43.3662 -6.71327 17.2543
rtibia 94.9022
rfoot 9.90511 -6.91554
rtoes 10.6855
lfemur 13.7664 -1.01066 -26.6736
ltibia 21.2086
lfoot 6.24678 -6.11853
ltoes -25.7002
97
root 0.625306 18.1229 15.3183 2.96525 4.85563 4.46868
lowerback 15.8142 -3.95993 -5.89395
upperback 0.421831 -6.42167 -1.38327
thorax -7.91403 -2.90291 3.23556
lowerneck -5.73677 1.47199 -1.3568
upperneck -6.55252 2.02675 0.207813
head -1.08002 1.03786 0.299312
rclavicle 8.28932e-014 -8.34896e-015
rhumerus -62.2515 5.13289 -82.8393
rradius 80.384
rwrist -2.53861
rhand -44.8568 33.3379
rfingers 7.12502
rthumb -17.6459 4.11866
lclavicle 8.28932e-014 -8.34896e-015
lhumerus -12.5189 -15.4209 85.9934
lradius 118.093
lwrist 30.845
lhand -38.9245 6.44909
lfingers 7.12502
lthumb -11.9308 36.0891
rfemur -44.3164 -4.84711 17.7975
rtibia 91.1932
rfoot 9.08783 -7.03012
rtoes 8.68761
lfemur 16.2993 -0.921565 -26.2318
ltibia 18.0388
lfoot 11.8871 -4.54135
ltoes -23.863
98
root 0.629073 18.1974 15.8877 3.25419 4.04023 4.23202
lowerback 15.2717 -3.96311 -5.73754
upperback 0.132882 -6.35481 -1.10809
thorax -7.91438 -2.86927 3.39512
lowerneck -5.62111 1.70977 -1.31287
upperneck -6.30222 2.32484 -0.200395
head -1.01751 1.18769 0.169366
rclavicle -4.48259e-014 1.43125e-014
rhumerus -63.0756 5.54543 -82.8261
rradius 80.6717
rwrist -2.32644
rhand -44.644 33.3563
rfingers 7.12502
rthumb -17.4411 4.11877
lclavicle -4.48259e-014 1.43125e-014
lhumerus -13.4222 -15.8282 86.2476
lradius 118.878
lwrist 30.8575
lhand -39.0647 5.77171
lfingers 7.12502
lthumb -12.0661 35.4038
rfemur -45.0732 -3.17796 18.0212
rtibia 87.2597
rfoot 8.33736 -6.92959
rtoes 7.26314
lfemur 18.8445 -0.910694 -26.0727
ltibia 14.5753
lfoot 17.8216 -2.29236
ltoes -22.0844
99
root 0.640066 18.2706 16.465 3.44616 3.5931 4.21559
lowerback 14.7762 -4.06982 -5.64159
upperback -0.0663611 -6.44006 -0.897665
thorax -7.82977 -2.91286 3.54757
lowerneck -5.85335 1.93987 -1.29782
upperneck -5.75853 2.62628 -0.519781
head -0.808863 1.33664 0.0774202
rclavicle -2.92213e-014 -3.18055e-015
rhumerus -63.7726 5.95852 -82.7664
rradius 81.0504
rwrist -2.17802
rhand -44.2829 33.7286
rfingers 7.12502
rthumb -17.0935 4.46059
lclavicle -2.92213e-014 -3.18055e-015
lhumerus -14.0611 -16.3688 86.3972
lradius 119.533
lwrist 30.9735
lhand -38.6934 4.18456
lfingers 7.12502
lthumb -11.708 33.8374
rfemur -45.3858 -2.13521 17.8683
rtibia 83.0906
rfoot 7.68601 -6.41052
rtoes 6.32704
lfemur 21.6403 -1.25681 -26.1646
ltibia 10.7511
lfoot 23.58 0.506353
ltoes -19.0758
100
root 0.654315 18.3414 17.0507 3.56585 3.17512 4.17336
lowerback 14.3213 -4.12742 -5.47279
upperback -0.257254 -6.44991 -0.666841
thorax -7.7703 -2.92133 3.66936
lowerneck -6.06981 2.11998 -1.32966
upperneck -5.16639 2.86788 -0.81927
head -0.590098 1.45465 0.000905731
rclavicle 8.49804e-015 -2.0276e-014
rhumerus -64.3585 6.27621 -82.5499
rradius 81.2866
rwrist -2.05437
rhand -44.081 33.847
rfingers 7.12502
rthumb -16.8992 4.56223
lclavicle 8.49804e-015 -2.0276e-014
lhumerus -14.6877 -17.2339 86.6353
lradius 120.17
lwrist 30.7228
lhand -38.2321 4.35881
lfingers 7.12502
lthumb -11.2632 34.0364
rfemur -45.427 -1.29588 17.688
rtibia 78.7136
rfoot 7.21997 -5.61709
rtoes 4.79053
lfemur 25.2648 -1.64771 -26.1824
ltibia 5.54995
lfoot 29.7681 3.22699
ltoes -13.5859
101
root 0.670914 18.4076 17.6332 3.67734 2.8144 3.9472
lowerback 13.9603 -4.20985 -5.01072
upperback -0.443574 -6.45534 -0.47764
thorax -7.7951 -2.93636 3.59307
lowerneck -5.79011 2.28751 -1.02431
upperneck -5.14937 3.05821 -1.28874
head -0.617863 1.54621 -0.190412
rclavicle 1.0389e-013 3.18055e-015
rhumerus -64.8342 6.50771 -82.4361
rradius 81.5138
rwrist -1.74048
rhand -44.7685 32.7453
rfingers 7.12502
rthumb -17.5609 3.51838
lclavicle 1.0389e-013 3.18055e-015
lhumerus -15.7214 -18.2046 86.938
lradius 120.878
lwrist 30.3074
lhand -38.4769 7.20145
lfingers 7.12502
lthumb -11.4992 36.866
rfemur -45.2356 -0.551555 17.6872
rtibia 74.1245
rfoot 6.75354 -4.80261
rtoes 4.30918
lfemur 29.0525 -2.11631 -25.954
ltibia 3.81667e-014
lfoot 34.722 5.34318
ltoes -11.0373
102
root 0.685124 18.4697 18.2062 3.9767 2.43692 4.02745
lowerback 12.8552 -4.26235 -5.16965
upperback -0.16179 -6.45246 -0.22677
thorax -6.82162 -2.97387 3.82144
lowerneck -6.2873 2.51986 -0.750901
upperneck -5.11079 3.34473 -1.85221
head -0.512345 1.68299 -0.393536
rclavicle 1.93442e-014 4.67144e-015
rhumerus -64.4554 6.81282 -82.2136
rradius 81.8302
rwrist -1.6217
rhand -45.619 32.0749
rfingers 7.12502
rthumb -18.3792 2.92317
lclavicle 1.93442e-014 4.67144e-015
lhumerus -15.8484 -19.0038 86.9823
lradius 121.3
lwrist 29.9846
lhand -38.8535 11.7305
lfingers 7.12502
lthumb -11.8624 41.3744
rfemur -45.0656 0.259401 17.3412
rtibia 69.3872
rfoot 6.02161 -4.11599
rtoes 3.28357
lfemur 29.8611 -2.51262 -26.233
ltibia 1.59028e-014
lfoot 33.9809 5.5399
ltoes -15.9481
103
root 0.698359 18.5313 18.7775 4.35421 2.09073 4.40973
lowerback 12.5214 -4.2913 -5.44846
upperback -0.452973 -6.51579 -0.0857031
thorax -6.89314 -2.98579 4.11815
lowerneck -6.70369 2.66769 -0.55166
upperneck -4.48283 3.53599 -2.35009
head -0.240604 1.76665 -0.561848
rclavicle 1.64215e-014 -3.19049e-014
rhumerus -64.8413 7.11744 -82.0409
rradius 82.1365
rwrist -1.60596
rhand -45.5409 32.4953
rfingers 7.12502
rthumb -18.304 3.33645
lclavicle 1.64215e-014 -3.19049e-014
lhumerus -16.7245 -19.9552 87.2286
lradius 121.611
lwrist 29.2993
lhand -38.0214 10.413
lfingers 7.12502
lthumb -11.0599 40.1016
rfemur -44.8229 1.14952 16.588
rtibia 64.5253
rfoot 5.21319 -3.57729
rtoes 0.502737
lfemur 30.6754 -2.93304 -26.9072
ltibia 7.31528e-014
lfoot 36.0315 4.98157
ltoes -11.146
104
root 0.716573 18.5814 19.3579 4.51412 1.95404 4.83956
lowerback 12.5315 -4.37192 -5.54287
upperback -0.71952 -6.64743 -0.04576
thorax -7.15683 -3.02934 4.2505
lowerneck -7.0902 2.75393 -0.512046
upperneck -4.05791 3.65793 -2.60973
head -0.0409996 1.81871 -0.636103
rclavicle -1.33124e-014 -1.21259e-014
rhumerus -65.1047 7.2363 -81.9124
rradius 82.453
rwrist -1.50751
rhand -45.1517 33.3235
rfingers 7.12502
rthumb -17.9297 4.12994
lclavicle -1.33124e-014 -1.21259e-014
lhumerus -17.9234 -20.9387 87.6501
lradius 121.872
lwrist 28.0788
lhand -37.7988 9.78512
lfingers 7.12502
lthumb -10.8452 39.4851
rfemur -44.1323 1.75871 15.7485
rtibia 59.4963
rfoot 4.77549 -3.11611
rtoes -2.974
lfemur 31.9115 -3.48621 -27.7627
ltibia -3.18055e-014
lfoot 37.0537 4.65373
ltoes -8.70437
